<svg xmlns="http://www.w3.org/2000/svg" viewBox="0 0 38.08 50"><path d="M38.18,2.61h.06a.93.93,0,0,1,.24,0l.12,0a1.17,1.17,0,0,1,.31.2l0,0a1.49,1.49,0,0,1,.27.33l0,0a4.13,4.13,0,0,1,.24.51s0,.08,0,.13c.07.2.15.42.22.67,1.82,6.83,1.89,13.69,1.42,21.08.47-7.39.4-14.25-1.37-21.08C39.43,3.19,38.94,2.62,38.18,2.61Z" transform="translate(-5.96)" fill="none"/><path d="M39.49,3.82s0,.08,0,.13S39.51,3.86,39.49,3.82Z" transform="translate(-5.96)" fill="#bda1d1"/><path d="M38.91,2.9l0,0Z" transform="translate(-5.96)" fill="#bda1d1"/><path d="M39.22,3.27l0,0Z" transform="translate(-5.96)" fill="#bda1d1"/><path d="M38.18,2.61h0Z" transform="translate(-5.96)" fill="#bda1d1"/><path d="M38.48,2.67l.12,0Z" transform="translate(-5.96)" fill="#bda1d1"/><path d="M39.76,4.62c-.07-.25-.15-.47-.22-.67s0-.09,0-.13a4.13,4.13,0,0,0-.24-.51l0,0A1.49,1.49,0,0,0,39,2.94l0,0a1.17,1.17,0,0,0-.31-.2l-.12,0a.93.93,0,0,0-.24,0h-.1a4.17,4.17,0,0,0-1.64.5C30.54,6,25,9.38,20.36,14.93c5.23,1.59,5.25,4.94,4.1,9.05a52.9,52.9,0,0,1-8.35,16.76c-1.46,2-3,4-4.78,6.42C20.12,46.8,30.55,38,34.13,29c1-2.5,2-4.23,4-4.23a6.54,6.54,0,0,1,3.06,1C41.65,18.31,41.58,11.45,39.76,4.62Z" transform="translate(-5.96)" fill="#ba00fb"/><path d="M42.28,4C41.4.68,39.53,0,38.11,0a6.59,6.59,0,0,0-2.78.75,48.74,48.74,0,0,0-17,12.52l-.51.61A2.09,2.09,0,0,0,18,16.82a2.2,2.2,0,0,0,.75.41l.75.23c2.8.84,3.49,1.76,2.35,5.85A49.75,49.75,0,0,1,14,39.25c-1,1.35-2,2.72-3.13,4.18L9.24,45.61,6,50l5.48-.23C21,49.37,32.49,40.28,36.56,30c.91-2.34,1.39-2.59,1.56-2.59a4.13,4.13,0,0,1,1.82.66l.72.39a2.08,2.08,0,0,0,2.85-.76,2,2,0,0,0,.28-.93V25.9C44.2,19.38,44.35,11.69,42.28,4ZM41.18,25.7a6.54,6.54,0,0,0-3.06-1c-2,0-3,1.73-4,4.23-3.58,9-14,17.85-22.8,18.21,1.8-2.4,3.32-4.38,4.78-6.42A52.9,52.9,0,0,0,24.46,24c1.15-4.11,1.13-7.46-4.1-9C25,9.38,30.54,6,36.5,3.11a4.17,4.17,0,0,1,1.64-.5h0c.76,0,1.25.58,1.63,2C41.58,11.45,41.65,18.31,41.18,25.7Z" transform="translate(-5.96)" fill="#370d51"/></svg>