<svg xmlns="http://www.w3.org/2000/svg" viewBox="0 0 50 50"><path d="M38.24,26.47C36.1,30.39,29.41,35.61,25,37.57a38.47,38.47,0,0,1-10.61-7.7l-4.28,4.28A36.14,36.14,0,0,0,25,43.78C34.08,40.45,40.36,35.23,44.12,28V10.19l-5.88,5.88Z" fill="none"/><path d="M5.88,28c.21.41.44.81.67,1.2L11.76,24V11.76H34.05l5.89-5.88H5.88Z" fill="none"/><polygon points="11.77 24.01 20.23 15.54 25.25 20.56 34.05 11.77 11.77 11.77 11.77 24.01" fill="#bd9e59"/><path d="M5.88,28V5.88H39.94L45.82,0H0V29.41a38.7,38.7,0,0,0,2.27,4.1l4.28-4.28C6.32,28.84,6.09,28.44,5.88,28Z" fill="#bd9e59"/><path d="M44.12,10.19V28c-3.76,7.2-10,12.42-19.12,15.75a36.14,36.14,0,0,1-14.89-9.63L6,38.31Q13,46.1,25,50q18.06-5.88,25-20.59V4.3Z" fill="#bd9e59"/><path d="M25,37.57c4.41-2,11.1-7.18,13.24-11.1V16.07l-13,13-5-5-5.84,5.85A38.47,38.47,0,0,0,25,37.57Z" fill="#bd9e59"/></svg>