<svg width="13" height="14" viewBox="0 0 13 14" fill="none" xmlns="http://www.w3.org/2000/svg">
    <path fill-rule="evenodd" clip-rule="evenodd"
        d="M0.779053 0.644958H9.36865V2.14419H2.27828V7.96189H0.779053V0.644958ZM11.4445 7.75355V2.84552H12.9437V8.16399L12.8421 8.33872C12.3491 9.18649 11.395 10.4155 10.3593 11.4359C9.83939 11.948 9.27859 12.4279 8.72469 12.7848C8.19125 13.1286 7.56995 13.4206 6.95045 13.4206C5.16339 13.4206 3.91049 12.2487 3.07702 11.4691C2.99815 11.3953 2.92302 11.3251 2.85155 11.2596L3.86389 10.1538C3.92912 10.2135 3.99379 10.2731 4.05805 10.3323C4.96005 11.1635 5.78249 11.9213 6.95045 11.9213C7.13275 11.9213 7.45439 11.8198 7.91262 11.5246C8.35039 11.2425 8.83002 10.8378 9.30712 10.3678C10.1929 9.49529 10.9998 8.46749 11.4445 7.75355ZM7.07775 4.74052H4.37959V3.24129H7.07775V4.74052ZM9.93598 7.15359L7.09442 10.4438L4.86802 9.02695L5.67295 7.76212L6.80649 8.48349L8.80135 6.17366L9.93598 7.15359Z"
        fill="#BD9E59" />
</svg>