<svg version="1.1" id="svg110" xmlns="http://www.w3.org/2000/svg" xmlns:svg="http://www.w3.org/2000/svg"
    viewBox="0.45 0.73 7.57 7">
    <defs id="defs107"></defs>
    <g id="layer1">
        <path fill="#eeeeee"
            d="M 4.0827462,0.73184162 C 2.8110922,0.7328268 1.5619361,1.3851301 0.88842902,2.6208905 0.55779982,3.2275806 0.41553448,3.9140864 0.45133972,4.584182 0.51103983,5.7009836 1.0658527,6.7719956 2.0706948,7.3520265 3.4204292,8.131185 5.2356912,7.7045505 5.9818676,6.2213881 6.5890724,5.014522 6.2282403,3.3982255 4.998641,2.7672583 4.0416914,2.2762186 2.7639057,2.6064801 2.3091418,3.7018132 2.143864,4.0998916 2.1302035,4.5478768 2.2619406,4.9510577 2.3936922,5.3542531 2.6909423,5.7211727 3.1281493,5.8750106 3.4127534,5.9751477 3.7202378,5.9613256 3.9998279,5.8351616 4.2794179,5.7089976 4.5403481,5.4257902 4.5832556,5.0445925 4.6485433,4.5332753 3.9104691,4.4420049 3.8601064,4.9551895 3.8498133,5.0500331 3.812317,5.0901762 3.7117534,5.1355541 3.611175,5.1809908 3.456808,5.1865784 3.3604351,5.1526112 3.1519998,5.0792362 3.0219684,4.9216635 2.9510049,4.7045084 2.8799825,4.4873386 2.8883641,4.2190269 2.9770317,4.0055627 3.2500784,3.3479657 4.0672183,3.1379718 4.6781433,3.4514556 5.5103407,3.878487 5.7644772,5.0181098 5.33774,5.8662467 4.7940584,6.9469048 3.4313546,7.2673732 2.4225717,6.6850335 1.1909139,5.9740743 0.83315515,4.2610375 1.5211019,2.9987503 2.3363596,1.5028244 4.2486857,1.0749402 5.6521648,1.9334142 6.7317642,2.5937608 7.3615991,3.8925151 7.2860477,5.200136 7.2507572,5.712953 7.989243,5.7596837 8.0131966,5.2461608 8.1050993,3.6555236 7.349615,2.0887812 6.0200551,1.2755527 5.4211289,0.90920643 4.7489304,0.7312682 4.0828492,0.73187106 Z"
            class="stat-wheel-icon" id="path46" style="stroke-width:1.47044;fill:#bd9e59;fill-opacity:1"></path>
    </g>
</svg>