<?xml version="1.0" encoding="utf-8"?>
<svg version="1.1" id="Layer_1" xmlns="http://www.w3.org/2000/svg" xmlns:xlink="http://www.w3.org/1999/xlink" x="0px"
	y="0px" viewBox="0 0 360 360" style="enable-background:new 0 0 360 360;" xml:space="preserve">
	<g>
		<path fill="rgb(255, 255, 255)" d="M209.4,33.4c-24.2-8.4-43.7-7.4-68.7,3.3c-23.8,10.4-48,32.4-58.3,53.5c-9.9,20.4-10.9,27.3-12.6,78.5
		c-0.7,25.5-2.2,48.8-3,51.8c-2.3,7-9.3,18.9-12.6,21.8c-3.8,3-3.3,6.5,2.5,21c6.6,17,18.2,35.3,29,46c10.4,10.4,29,20.2,41.7,21.7
		l8.8,1.2l-5-8.1c-15.2-24.7-17.4-60.3-5.8-97c2.3-7.1,3.8-13.6,3.3-14.4c-0.5-0.8-3-2-5.5-2.6c-7.4-1.8-18.4-9.1-24.5-16.2
		c-9.8-11.4-11.3-24.7-4.8-40.9l2.8-7l8.9,1c19.2,2.3,38.4,13.2,50.2,28.5l7,8.8l-0.2,39.6l-0.3,39.6l4.3,5.3
		c2.5,2.8,6.5,6.6,9.1,8.4l4.6,3.3l8.4-7.6l8.4-7.6v-40.9v-41.1l4.6-6.5c12.6-17.4,36.6-30.5,55.9-30.5c4.8,0,5.6,0.7,7.9,7.8
		c4,11.4,3.5,25-1.2,33.8c-4.5,8.3-15.9,17.7-26.3,21.5c-8.4,3.1-8.4,3.5-2.2,23.8c4.1,13.2,4.6,17.4,4.8,38.9
		c0.2,26.8-1.3,33.6-11.4,50.5l-5.8,9.6l8.6-1.2c12.7-1.5,31.5-11.3,41.7-21.7c4.8-4.8,12.2-14.2,16.4-20.9
		c7.4-11.9,17.7-35.6,17.7-40.6c0-1.3-3-6.1-6.6-10.8c-3.5-4.5-7.3-11.1-8.4-14.4c-1-3.5-2.5-26.5-3.1-53.3c-1-34.3-2.2-49.8-4-57.1
		C276.4,76.5,247.4,46.5,209.4,33.4z" />
	</g>
</svg>