<svg xmlns="http://www.w3.org/2000/svg" viewBox="0 0 60.22 60.22">
	<path fill="#BD9E59" d="M48.43,41.87l-8.87-12.28V11.31h3.7V5.44h-2.15H19.11h-2.19v5.86h3.74v18.28l-8.87,12.28
		c-1.79,2.48-2.04,5.75-0.65,8.47c1.39,2.72,4.19,4.43,7.25,4.43h23.44c3.06,0,5.86-1.71,7.25-4.43
		C50.47,47.62,50.22,44.35,48.43,41.87z M35.99,30.05c0,1.24-1.01,2.25-2.25,2.25c-1.24,0-2.25-1.01-2.25-2.25
		c0-1.24,1.01-2.25,2.25-2.25C34.98,27.79,35.99,28.8,35.99,30.05z M26.18,38.73c-1.84,0-3.33-1.49-3.33-3.33s1.49-3.33,3.33-3.33
		c1.84,0,3.33,1.49,3.33,3.33S28.02,38.73,26.18,38.73z M34.64,48.09c-2.33,0-4.23-1.89-4.23-4.23s1.89-4.23,4.23-4.23
		c2.33,0,4.23,1.89,4.23,4.23S36.97,48.09,34.64,48.09z" />
</svg>