<svg class="trait_icon createSvgIcon__Svg-sc-1l8xi8d-0 ldKivg" version="1.1" id="svg16"
   xmlns="http://www.w3.org/2000/svg" xmlns:svg="http://www.w3.org/2000/svg" viewBox="0.98 2.23 30.04 27.54">
   <defs id="defs20"></defs>
   <title id="title2">Duelist</title>
   <g id="g28" transform="matrix(1.2518259,0,0,1.2518259,-4.0292203,-4.0295888)">
      <path
         d="m 8.0039,5 16.2888,16.2319 -2.9238,2.9136 c 0,0 -9.7923,-9.758 -12.00001,-11.958 C 7.16116,9.98746 8.0039,5 8.0039,5 Z"
         stroke="#e5ebef" fill="#bd9e59" stroke-width="0px" id="path4"></path>
      <path
         d="m 27.5688,26.5742 c -0.5737,0.5717 -1.5114,0.5717 -2.0811,0 l -2.726,-2.7165 c -0.5737,-0.5717 -0.5737,-1.5061 0,-2.0738 0.5737,-0.5717 1.5114,-0.5717 2.0811,0 l 2.726,2.7165 c 0.5737,0.5677 0.5737,1.5021 0,2.0738 z"
         stroke="#e5ebef" fill="#bd9e59" stroke-width="0px" id="path6"></path>
      <path
         d="m 24.7043,17.5494 c 1.3452,1.3405 0.8625,3.9939 -1.0801,5.9258 -1.9426,1.9319 -4.6054,2.4169 -5.9466,1.0764 z"
         stroke="#e5ebef" fill="#bd9e59" stroke-width="0px" id="path8"></path>
      <path
         d="M 23.9961,5 7.70728,21.2319 10.6311,24.1455 c 0,0 9.7923,-9.758 12,-11.958 C 24.8388,9.98746 23.9961,5 23.9961,5 Z"
         stroke="#e5ebef" fill="#bd9e59" stroke-width="0px" id="path10"></path>
      <path
         d="m 4.43124,26.5742 c 0.57369,0.5717 1.51138,0.5717 2.08111,0 l 2.72601,-2.7165 c 0.57369,-0.5717 0.57369,-1.5061 0,-2.0738 -0.57368,-0.5717 -1.51137,-0.5717 -2.0811,0 l -2.72602,2.7165 c -0.57369,0.5677 -0.57369,1.5021 0,2.0738 z"
         stroke="#e5ebef" fill="#bd9e59" stroke-width="0px" id="path12"></path>
      <path
         d="m 7.29573,17.5494 c -1.34521,1.3405 -0.86251,3.9939 1.08012,5.9258 1.94265,1.9319 4.60535,2.4169 5.94655,1.0764 z"
         stroke="#e5ebef" fill="#bd9e59" stroke-width="0px" id="path14"></path>
   </g>
</svg>