<svg width="16" height="16" viewBox="0 0 16 16" fill="none" xmlns="http://www.w3.org/2000/svg">
<g clip-path="url(#clip0)">
<path d="M6.89149 14.8664C4.47314 12.1457 6.76551 9.70211 8.0251 8.82047L11.4259 16L13.3153 15.2443L9.53658 7.68686C11.9549 6.47767 13.5672 8.94637 14.071 10.3319C14.9527 9.8281 16.4894 7.83801 15.5825 3.90817C14.6756 -0.021676 10.6702 -0.248398 8.78084 0.129472C12.4084 2.54784 10.0404 4.66391 8.40297 5.41964L7.26936 3.5303L5.75788 4.28604L6.89149 6.55325C3.86856 7.15784 2.86088 4.28604 2.73491 2.77456C-1.79953 10.6342 3.61662 14.1106 6.89149 14.8664Z" fill="#B3B4D0"/>
</g>
<defs>
<clipPath id="clip0">
<rect width="16" height="16" fill="white"/>
</clipPath>
</defs>
</svg>
