<svg xmlns:xlink="http://www.w3.org/1999/xlink" xmlns="http://www.w3.org/2000/svg" viewBox="0 0 32 32" class="createSvgIcon__Svg-sc-1l8xi8d-0 loXvaP" width="32"  height="32" ><title>match-gold</title><path d="M18.5 4.050c6.4-0.483 11.85 2.617 12.15 6.867 0.233 3.117-2.4 6.017-6.35 7.517 0.133 0.383 0.2 0.767 0.233 1.167 0.317 4.25-4.6 7.9-11.033 8.367s-11.833-2.45-12.15-6.7c-0.217-3.117 2.4-6.017 6.35-7.517-0.133-0.383-0.2-0.767-0.233-1.167-0.317-4.25 4.633-8.050 11.033-8.533zM4.5 20.667c-0.283 2 2.967 4.817 8.833 4.333s7.65-2.9 6.767-5.617c-0.053 0.005-0.106 0.012-0.16 0.019-0.115 0.015-0.232 0.031-0.356 0.031-4.183 0.3-7.967-0.933-10.167-3.017-2.433 0.5-4.617 2.183-4.917 4.25z" stroke="#EFBF6C" fill="#EFBF6C" stroke-width="0px"></path></svg>