<svg width="16" height="16" viewBox="2 2 12 13" fill="none" xmlns="http://www.w3.org/2000/svg">
    <path
        d="M7.99998 10.6605C9.46931 10.6605 10.6605 9.46931 10.6605 7.99998C10.6605 6.53061 9.46931 5.33948 7.99998 5.33948C6.53061 5.33948 5.33948 6.53061 5.33948 7.99998C5.33948 9.46931 6.53061 10.6605 7.99998 10.6605Z"
        fill="#BD9E59" />
    <path fill-rule="evenodd" clip-rule="evenodd"
        d="M13.8531 8.00002C13.8531 11.2326 11.2326 13.8531 8.00002 13.8531C4.76742 13.8531 2.14691 11.2326 2.14691 8.00002C2.14691 4.76742 4.76742 2.14691 8.00002 2.14691C11.2326 2.14691 13.8531 4.76742 13.8531 8.00002ZM12.2568 8.00002C12.2568 10.351 10.351 12.2568 8.00002 12.2568C5.64906 12.2568 3.74322 10.351 3.74322 8.00002C3.74322 5.64905 5.64906 3.74322 8.00002 3.74322C10.351 3.74322 12.2568 5.64905 12.2568 8.00002Z"
        fill="#BD9E59" />
</svg>