<svg xmlns="http://www.w3.org/2000/svg" viewBox="0 0 11.71 11.71"><path d="M5.86,1.6A4.25,4.25,0,0,0,1.6,5.86a4.18,4.18,0,0,0,.34,1.66L3.23,6.24a2.58,2.58,0,0,1,0-.39A2.67,2.67,0,0,1,5.85,3.19,2.64,2.64,0,0,1,7.78,4L8.91,2.9A4.22,4.22,0,0,0,5.86,1.6Z" transform="translate(0 0)" fill="none"/><path d="M8.52,5.85A2.66,2.66,0,0,1,3.85,7.6L2.72,8.73a4.25,4.25,0,0,0,7-4.65L8.46,5.34A2.16,2.16,0,0,1,8.52,5.85Z" transform="translate(0 0)" fill="none"/><path d="M5.85,8.52A2.68,2.68,0,0,0,8.52,5.85a2.16,2.16,0,0,0-.06-.51L5.91,7.88,4.74,6.71l-.89.89A2.65,2.65,0,0,0,5.85,8.52Z" transform="translate(0 0)" fill="#bd9e59"/><path d="M5.85,3.19A2.67,2.67,0,0,0,3.19,5.85a2.58,2.58,0,0,0,0,.39L4.74,4.72,5.91,5.9,7.78,4A2.64,2.64,0,0,0,5.85,3.19Z" transform="translate(0 0)" fill="#bd9e59"/><path d="M1.6,5.86a4.25,4.25,0,0,1,7.31-3L10,1.77A5.85,5.85,0,0,0,0,5.86,5.74,5.74,0,0,0,.75,8.71L1.94,7.52A4.18,4.18,0,0,1,1.6,5.86Z" transform="translate(0 0)" fill="#bd9e59"/><path d="M9.72,4.08a4.25,4.25,0,0,1-7,4.65L1.59,9.86a5.85,5.85,0,0,0,10.12-4,5.78,5.78,0,0,0-.81-3Z" transform="translate(0 0)" fill="#bd9e59"/></svg>