<svg xmlns="http://www.w3.org/2000/svg" viewBox="0 0 148 148"><path d="M21.18,75A53.72,53.72,0,0,1,97.72,26.27l8.55-18.34A74,74,0,0,0,7.93,106.28l18.3-8.54A53.37,53.37,0,0,1,21.18,75Z" transform="translate(-1 -1)" fill="#bd9e59"/><path d="M123.77,52.26a53.74,53.74,0,0,1-71.49,71.47l-8.55,18.34a74,74,0,0,0,98.34-98.35Z" transform="translate(-1 -1)" fill="#bd9e59"/><path d="M82.88,37.71C54.13,30.52,37,57.08,32,71.25c18.87-14.67,24.56-3.89,37.74-9C80.24,58.2,82.88,44.2,82.88,37.71Z" transform="translate(-1 -1)" fill="#bd9e59"/><path d="M65.88,112.82C94.63,120,111.8,93.45,116.79,79.28c-18.87,14.67-24.56,3.89-37.74,9C68.51,92.34,65.88,106.33,65.88,112.82Z" transform="translate(-1 -1)" fill="#bd9e59"/></svg>