<svg width="16" height="16" viewBox="2 2 12 13" fill="none" xmlns="http://www.w3.org/2000/svg">
    <path
        d="M9.00315 4.8824C6.86155 4.347 5.58255 6.325 5.21075 7.3809C6.61619 6.28776 7.04002 7.09093 8.02159 6.7117C8.80685 6.4083 9.00315 5.36576 9.00315 4.8824Z"
        fill="#BD9E59" />
    <path
        d="M10.8101 7.69336C10.0427 9.72789 7.91747 10.1175 6.95081 10.058C6.95081 10.4819 7.33897 11.3073 8.89161 11.2181C10.4443 11.1288 10.8176 8.83106 10.8101 7.69336Z"
        fill="#BD9E59" />
    <path fill-rule="evenodd" clip-rule="evenodd"
        d="M4.54893 5.55939C3.75727 6.75189 3.90417 8.30949 4.13903 9.58185L2.84692 9.82035C2.58355 8.39339 2.39244 6.43215 3.45427 4.83269C3.99833 4.01312 5.01583 3.18159 6.1523 2.8419C7.27624 2.50596 8.67764 2.49875 10.4028 2.9044L10.102 4.18345C8.5256 3.81275 7.36897 3.84962 6.5286 4.10079C5.70074 4.34825 4.93157 4.98302 4.54893 5.55939Z"
        fill="#BD9E59" />
    <path fill-rule="evenodd" clip-rule="evenodd"
        d="M12.2947 8.56726C12.331 7.6165 12.0583 6.7032 11.8022 6.1714L12.9859 5.6012C13.3172 6.28893 13.6536 7.4146 13.6077 8.61736C13.5611 9.83883 13.081 11.3201 11.8022 12.3055C10.5725 13.2529 9.26443 13.616 8.06156 13.6194C6.867 13.6229 5.77243 13.1287 5.14056 12.8427L5.68243 11.6457C6.15113 11.8578 7.06023 12.3084 8.0578 12.3055C9.04713 12.3027 10.0526 11.9948 11.0002 11.2647C11.8986 10.5725 12.2591 9.4993 12.2947 8.56726Z"
        fill="#BD9E59" />
</svg>