<svg width="16" height="16" viewBox="0 0 16 16" fill="none" xmlns="http://www.w3.org/2000/svg">
    <g clip-path="url(#clip0)">
        <path fill-rule="evenodd" clip-rule="evenodd"
            d="M8.51065 12.3371L1.52588e-05 9.95419L6.12767 3.48608C5.58299 2.66905 3.85817 2.23782 3.06384 2.12433C7.48938 1.44349 9.75886 3.71299 10.8936 5.18816H11.5745V4.16689L16 4.84774L12.5958 7.91157L12.2553 6.89029L11.2341 7.57114C12.0511 11.9286 9.07801 14.1527 7.48938 14.7201L8.51065 12.3371ZM9.1915 6.20944C8.91916 4.84775 7.48938 4.05342 6.80853 3.82647L2.38299 8.59242L9.1915 6.20944ZM3.06384 9.61369L9.87236 7.91157C9.98585 8.81941 10.0085 10.8392 9.1915 11.6562L3.06384 9.61369Z"
            fill="#B3B4D0" />
    </g>
    <defs>
        <clipPath id="clip0">
            <rect width="16" height="16" fill="white" />
        </clipPath>
    </defs>
</svg>