<svg width="16" height="16" viewBox="0 1 15 15" fill="none" xmlns="http://www.w3.org/2000/svg">
    <path
        d="M0.805559 5.78652C0.702009 8.49929 2.88501 11.6971 3.98947 12.9568C3.48037 11.8955 2.61751 9.10505 3.23876 6.43369C4.01533 3.09449 0.934992 2.3956 0.805559 5.78652Z"
        fill="#BD9E59" />
    <path
        d="M4.27417 4.28533C4.27417 5.2172 5.068 5.916 5.49077 6.07133C5.0797 5.433 5.14874 4.16377 5.8273 4.07813C6.97954 3.93267 6.98904 4.8631 6.91447 5.39827C7.76867 5.21707 8.07934 3.5085 6.91447 3.40513C5.00487 3.2357 4.27417 3.1205 4.27417 4.28533Z"
        fill="#BD9E59" />
    <path
        d="M14.9204 5.78652C15.0239 8.49929 12.8409 11.6971 11.7365 12.9568C12.2456 11.8955 13.1084 9.10505 12.4871 6.43369C11.7106 3.09449 14.7909 2.3956 14.9204 5.78652Z"
        fill="#BD9E59" />
    <path
        d="M11.4517 4.28533C11.4517 5.2172 10.6579 5.916 10.2351 6.07133C10.6462 5.433 10.5772 4.16377 9.89861 4.07813C8.74638 3.93267 8.73688 4.8631 8.81145 5.39827C7.95725 5.21707 7.64658 3.5085 8.81145 3.40513C10.721 3.2357 11.4517 3.1205 11.4517 4.28533Z"
        fill="#BD9E59" />
</svg>