<svg xmlns:xlink="http://www.w3.org/1999/xlink" xmlns="http://www.w3.org/2000/svg" viewBox="0 0 48 48" class="createSvgIcon__Svg-sc-1l8xi8d-0 loXvaP" width="48"  height="48" ><title>rank-silver</title><path fill-rule="evenodd" clip-rule="evenodd" d="M17.404 17.6437C12.3151 21.4463 13.0209 29.3939 16.0231 31.79C15.5064 33.3524 15.7826 34.8254 16.1815 36.0835C11.419 32.6221 8.41801 26.1029 8.60206 23.3104C9.20044 24.0009 10.0059 24.3154 10.8344 24.0546C2.18092 18.0401 2.28062 9.78556 2.89434 6.31812C5.1039 12.5166 13.9569 16.3344 17.404 17.6437ZM31.371 25.4085C31.371 29.4081 28.1287 32.6504 24.1291 32.6504C20.1295 32.6504 16.8872 29.4081 16.8872 25.4085C16.8872 21.409 20.1295 18.1667 24.1291 18.1667C28.1287 18.1667 31.371 21.409 31.371 25.4085ZM32.1106 31.79C35.1127 29.394 35.8185 21.4463 30.7296 17.6437C34.1767 16.3345 43.0297 12.5167 45.2393 6.31815C45.853 9.7856 45.9527 18.0401 37.2992 24.0546C38.1277 24.3154 38.9332 24.0009 39.5316 23.3105C39.7156 26.1029 36.7146 32.6221 31.9521 36.0835C32.3511 34.8254 32.6272 33.3525 32.1106 31.79Z" fill="#80989D" stroke="#80989D" stroke-width="0px"></path></svg>