<svg xmlns:xlink="http://www.w3.org/1999/xlink" xmlns="http://www.w3.org/2000/svg" viewBox="0 0 48 48" class="createSvgIcon__Svg-sc-1l8xi8d-0 loXvaP" width="48"  height="48" ><title>rank-bronze</title><path fill-rule="evenodd" clip-rule="evenodd" d="M32.1968 33.2088C34.2678 30.4258 36.7466 23.4163 30.7405 18.2903C34.3757 16.9095 42.5459 12.9378 45.4972 7.44934C46.015 10.653 44.6234 20.1996 36.9217 24.8919C38.0461 25.0618 38.483 24.9971 39.6075 24.3418C39.23 27.0278 37.2192 33.3123 32.1968 36.9626C32.4881 35.3122 32.4557 34.8268 32.1968 33.2088ZM17.3101 18.2903C11.304 23.4163 13.7827 30.4258 15.8538 33.2088C15.5949 34.8268 15.5625 35.3122 15.8538 36.9627C10.8313 33.3123 8.82061 27.0278 8.44306 24.3418C9.56761 24.9971 10.0045 25.0619 11.1289 24.892C3.42713 20.1996 2.03553 10.6531 2.55336 7.44939C5.5047 12.9378 13.6748 16.9095 17.3101 18.2903ZM31.4519 26.5746C31.4519 30.7211 28.0905 34.0825 23.944 34.0825C19.7976 34.0825 16.4362 30.7211 16.4362 26.5746C16.4362 22.4282 19.7976 19.0668 23.944 19.0668C28.0905 19.0668 31.4519 22.4282 31.4519 26.5746Z" fill="#8C513A" stroke="#9F6347" stroke-width="0px"></path></svg>