<svg xmlns:xlink="http://www.w3.org/1999/xlink" xmlns="http://www.w3.org/2000/svg" viewBox="0 0 48 48" class="createSvgIcon__Svg-sc-1l8xi8d-0 loXvaP rank-icon" width="48"  height="48" ><title>rank-diamond</title><path fill-rule="evenodd" clip-rule="evenodd" d="M3.48174 7.36328C4.35273 12.4325 12.7213 17.5147 16.7967 19.4221C14.0054 22.7439 13.8936 29.7782 17.9969 32.9883C21.2796 35.5564 21.4303 38.1524 21.1791 40.6367C19.1693 35.7239 16.2291 33.9839 14.3402 32.9883C14.0331 34.384 14.5635 36.0495 15.0102 36.7567C10.5216 34.4789 6.85927 27.0705 6.85927 24.4745C7.80329 25.6493 8.95261 25.8239 9.52039 25.9102C9.55701 25.9158 9.59121 25.921 9.62278 25.9261C9.62278 24.7816 9.42736 23.3021 6.69177 20.6503C3.68107 17.7318 2.3651 11.8295 3.48174 7.36328ZM30.6196 25.715C30.6196 29.3138 27.7022 32.2312 24.1034 32.2312C20.5046 32.2312 17.5872 29.3138 17.5872 25.715C17.5872 22.1162 20.5046 19.1988 24.1034 19.1988C27.7022 19.1988 30.6196 22.1162 30.6196 25.715ZM31.1107 19.4221C35.1861 17.5147 43.5547 12.4325 44.4257 7.3633C45.5423 11.8295 44.2263 17.7318 41.2156 20.6503C38.48 23.3022 38.2846 24.7816 38.2846 25.9261C38.3162 25.921 38.3504 25.9158 38.387 25.9102C38.9548 25.824 40.1041 25.6493 41.0481 24.4745C41.0481 27.0705 37.3858 34.4789 32.8972 36.7567C33.3439 36.0495 33.8743 34.384 33.5672 32.9883C31.6783 33.9839 28.7381 35.7239 26.7283 40.6367C26.4771 38.1524 26.6278 35.5564 29.9105 32.9883C34.0138 29.7782 33.902 22.7439 31.1107 19.4221Z" fill="#576BCE" stroke="#C39B55" stroke-width="0px"></path></svg>