<svg xmlns:xlink="http://www.w3.org/1999/xlink" xmlns="http://www.w3.org/2000/svg" viewBox="0 0 48 48" class="createSvgIcon__Svg-sc-1l8xi8d-0 loXvaP" width="48"  height="48" ><title>rank-platinum</title><path fill-rule="evenodd" clip-rule="evenodd" d="M3.2857 7.07434C4.17181 12.2316 12.6857 17.402 16.832 19.3426C13.9922 22.7221 13.8784 29.8785 18.053 33.1444C21.3927 35.7571 21.5459 38.3982 21.2905 40.9257C19.2457 35.9275 16.2544 34.1573 14.3328 33.1444C14.0203 34.5643 14.56 36.2588 15.0143 36.9782C10.4478 34.6609 6.72189 27.1239 6.72189 24.4828C7.6823 25.678 8.85159 25.8556 9.42923 25.9434C9.46648 25.9491 9.50128 25.9543 9.5334 25.9595C9.5334 24.7952 9.33458 23.29 6.55148 20.5921C3.48849 17.6229 2.14966 11.6181 3.2857 7.07434ZM30.7231 25.8458C30.7231 29.469 27.786 32.4061 24.1629 32.4061C20.5398 32.4061 17.6027 29.469 17.6027 25.8458C17.6027 22.2227 20.5398 19.2856 24.1629 19.2856C27.786 19.2856 30.7231 22.2227 30.7231 25.8458ZM31.2807 19.3426C35.4269 17.402 43.9408 12.2316 44.8269 7.07436C45.9629 11.6181 44.6241 17.623 41.5611 20.5922C38.778 23.29 38.5792 24.7952 38.5792 25.9595C38.6113 25.9544 38.6461 25.9491 38.6834 25.9434C39.261 25.8556 40.4303 25.678 41.3907 24.4828C41.3907 27.1239 37.6648 34.6609 33.0983 36.9783C33.5527 36.2588 34.0923 34.5644 33.7798 33.1444C31.8582 34.1573 28.8669 35.9275 26.8221 40.9257C26.5667 38.3982 26.7199 35.7571 30.0596 33.1444C34.2342 29.8786 34.1204 22.7221 31.2807 19.3426Z" fill="#4E9996" stroke="#4E9996" stroke-width="0px"></path></svg>