<svg xmlns:xlink="http://www.w3.org/1999/xlink" xmlns="http://www.w3.org/2000/svg" viewBox="0 0 48 48" class="createSvgIcon__Svg-sc-1l8xi8d-0 loXvaP" width="48"  height="48" ><title>rank-challenger</title><circle cx="24.0601" cy="28.693" r="5.9795" fill="#3FBFDD" stroke="#F4C874" stroke-width="0px"></circle><path fill-rule="evenodd" clip-rule="evenodd" d="M18.3255 21.7413C15.2059 18.4316 9.20411 10.2635 10.1542 4.06848C8.66562 6.85556 6.21082 12.4773 7.30361 16.6579C7.6276 17.8974 7.89281 18.723 8.09656 19.3573C8.52817 20.7009 8.68408 21.1862 8.53895 22.9289C7.06622 21.3295 4.12075 17.323 4.12075 14.0925C2.80634 16.7688 1.17519 24.2116 5.16585 32.5729C9.14062 33.2222 17.7838 36.307 20.5582 43.4521L22.411 37.8462C20.3998 37.2286 16.197 34.8343 15.4749 30.1975C14.7528 25.5608 17.0744 22.628 18.3255 21.7413ZM29.7949 21.7413C32.9145 18.4316 38.9162 10.2635 37.9662 4.06848C39.4547 6.85556 41.9095 12.4773 40.8167 16.6579C40.4928 17.8974 40.2276 18.723 40.0238 19.3573C39.5922 20.7009 39.4363 21.1862 39.5814 22.9289C41.0541 21.3295 43.9996 17.323 43.9996 14.0925C45.314 16.7688 46.9452 24.2116 42.9545 32.5729C38.9797 33.2222 30.3366 36.307 27.5622 43.4521L25.7094 37.8462C27.7205 37.2286 31.9234 34.8343 32.6455 30.1975C33.3676 25.5608 31.046 22.628 29.7949 21.7413Z" fill="#F4C874" stroke="#F4C874" stroke-width="0px"></path></svg>