<svg xmlns:xlink="http://www.w3.org/1999/xlink" xmlns="http://www.w3.org/2000/svg" viewBox="0 0 48 48" class="createSvgIcon__Svg-sc-1l8xi8d-0 loXvaP" width="48"  height="48" ><title>rank-none</title><path fill-rule="evenodd" clip-rule="evenodd" d="M27.5144 15.9318C24.9913 15.1639 22.1209 15.5478 20.9873 15.9318L24.2234 11.7633L27.5144 15.9318ZM31.6278 26.2159C31.6278 30.3811 28.2513 33.7576 24.0861 33.7576C19.921 33.7576 16.5444 30.3811 16.5444 26.2159C16.5444 22.0507 19.921 18.6742 24.0861 18.6742C28.2513 18.6742 31.6278 22.0507 31.6278 26.2159ZM27.5142 37.4323C26.3805 37.8162 23.5102 38.2002 20.9871 37.4323L24.2781 41.6007L27.5142 37.4323ZM16.9284 36.0063H12.5405C11.407 34.6534 9.13989 30.9164 9.13989 26.7917C9.13989 22.6671 11.407 19.0032 12.5405 17.6869H16.9284C15.3195 19.0398 12.5405 22.7549 12.5405 26.7917C12.5405 30.8286 15.3195 34.6168 16.9284 36.0063ZM35.4671 17.6868H31.0792C32.688 19.0763 35.4671 22.8645 35.4671 26.9013C35.4671 30.9381 32.688 34.6532 31.0792 36.0061H35.4671C36.6006 34.6898 38.8677 31.0259 38.8677 26.9013C38.8677 22.7766 36.6006 19.0397 35.4671 17.6868Z" fill="#6B6963" stroke="#484B51" stroke-width="0px"></path></svg>