<?xml version="1.0" encoding="UTF-8" standalone="no"?>

<svg
        width="32"
        height="32"
        viewBox="0 0 8.4666659 8.4666659"
        version="1.1"
        id="svg110"
        xmlns="http://www.w3.org/2000/svg"
        xmlns:svg="http://www.w3.org/2000/svg">
    <defs id="defs107"/>
    <g id="layer1">
        <path
                style="fill:#bd9e59;fill-opacity:1;stroke-width:0.10412"
                d="M 2.8753959,7.4598616 C 2.7665092,7.0260223 2.8943609,6.0636388 3.1517264,5.3798266 3.4803166,4.506773 4.5111282,3.4759614 5.3841817,3.1473713 6.0679939,2.8900058 7.0303774,2.7621541 7.4642167,2.8710408 7.9545603,2.9941092 7.7198292,3.2369222 6.8048414,3.5531185 5.2245714,4.0992196 4.0090653,5.3261386 3.5248285,6.8639291 3.2532055,7.7265221 3.0005191,7.9583921 2.8753959,7.4598616 Z M 0.99152429,5.0539209 C 0.94188489,4.9245628 1.0609648,4.7557015 1.4237988,4.4409337 L 1.924586,4.0064881 1.545948,3.7176867 C 0.98060269,3.2864769 1.0757513,3.03712 1.8056359,3.03712 H 2.1145697 L 1.4326992,2.0591161 C 0.36745969,0.53124756 0.53371309,0.36378906 2.0639498,1.4232896 L 3.0414751,2.1001055 V 1.7962263 c 0,-0.7247097 0.2505272,-0.81844432 0.6805667,-0.2546334 L 4.0108432,1.9202309 4.4452888,1.4194437 C 4.7600567,1.0566097 4.9289179,0.93752978 5.058276,0.98716918 5.2095484,1.0452179 5.2321686,1.1789844 5.2063793,1.8629935 L 5.1759411,2.670305 4.6738556,2.9083286 C 4.0308513,3.2131578 3.2175129,4.0264962 2.9126838,4.6695005 L 2.6746601,5.171586 1.8673486,5.2020242 C 1.1833396,5.2278135 1.049573,5.2051933 0.99152429,5.0539209 Z"
                id="path1014"
        />
    </g>
</svg>
