<svg xmlns:xlink="http://www.w3.org/1999/xlink" xmlns="http://www.w3.org/2000/svg" viewBox="0 0 31 32"
    class="createSvgIcon__Svg-sc-1l8xi8d-0 loXvaP trait_icon" width="31" height="32">
    <title>trait-Assassin</title>
    <path
        d="M15.515 4.848c-2.198 0-5.672 1.446-6.206 7.111-0.353 3.743-1.939 5.24-3.491 5.988 0.517 2.246 2.638 7.036 6.982 8.234-2.198-4.366-4.732-13.099 2.715-13.099v-8.234zM15.515 4.848c2.198 0 5.672 1.446 6.206 7.111 0.388 4.117 1.939 5.24 3.491 5.988-0.517 2.246-2.638 7.036-6.982 8.234 2.198-4.366 4.732-13.099-2.715-13.099v-8.234z"
        stroke="#E2E4E9" fill="#BD9E59" stroke-width="0px"></path>
    <path
        d="M17.423 20.818c-0.971 1.23-2.893 1.278-3.863 0.047-0.845-1.071-1.319-2.205-1.57-3.788-0.146-0.92 0.446-1.781 1.341-2.098 1.411-0.5 2.967-0.497 4.379 0.004 0.888 0.315 1.494 1.166 1.351 2.079-0.225 1.444-0.699 2.567-1.638 3.756z"
        stroke="#E2E4E9" fill="#BD9E59" stroke-width="0px"></path>
</svg>