<svg xmlns="http://www.w3.org/2000/svg" viewBox="0 0 150 150"><path d="M75,6.33A68.32,68.32,0,0,0,41.53,15L62.79,36.3A40.59,40.59,0,0,1,113.7,87.22L135,108.47A68.67,68.67,0,0,0,75,6.33Z" fill="#ff0c08"/><path d="M75,0A75,75,0,0,0,38.44,9.52l-7.3,4.08,5.91,5.91L58.31,40.77,61,43.49l3.66-1.16a34.27,34.27,0,0,1,43,43L106.51,89l2.72,2.72L130.48,113l5.92,5.91,4.08-7.3A75,75,0,0,0,75,0Zm38.7,87.22A40.58,40.58,0,0,0,62.79,36.3L41.53,15A68.67,68.67,0,0,1,135,108.47Z"/><path d="M103.69,103.69,46.31,46.31h0L6.45,6.45s19,19,8.59,35.08l-.12.23a68.66,68.66,0,0,0,93.32,93.32l.23-.12a21.81,21.81,0,0,1,10.57-2.7c13.22,0,24.51,11.29,24.51,11.29l-39.86-39.86ZM90,121.09a3.68,3.68,0,0,1-5.21,0l-5.74-5.74a39,39,0,0,1-4.07.23A40.58,40.58,0,0,1,34.42,75a39,39,0,0,1,.23-4.07L28.91,65.2A3.69,3.69,0,0,1,34.13,60L90,115.87A3.68,3.68,0,0,1,90,121.09Z" fill="#ff0c08"/><path d="M148,139.09v0L108.17,99.22,50.78,41.83,10.93,2a6.88,6.88,0,0,0-9,8.93H2c.15.15,15.23,15.6,7.76,27.17l-.11.17-.1.18c0,.08-.09.16-.13.24A75,75,0,0,0,111.31,140.62l.21-.12a15.46,15.46,0,0,1,7.52-1.91c10.37,0,20,9.35,20,9.44A6.87,6.87,0,0,0,148,139.09Zm-29-6.83a21.81,21.81,0,0,0-10.57,2.7l-.23.12A68.66,68.66,0,0,1,14.92,41.76l.12-.23C25.44,25.44,6.45,6.45,6.45,6.45L46.31,46.31h0l57.38,57.38h0l39.86,39.86S132.26,132.26,119,132.26Z"/><path d="M34.13,60a3.69,3.69,0,0,0-5.22,5.22l5.74,5.73A39,39,0,0,0,34.42,75,40.58,40.58,0,0,0,75,115.58a39,39,0,0,0,4.07-.23l5.74,5.74A3.69,3.69,0,0,0,90,115.87ZM40.82,77.1,72.9,109.18A34.29,34.29,0,0,1,40.82,77.1Z"/></svg>