<svg width="16" height="16" viewBox="0 0 16 16" fill="none" xmlns="http://www.w3.org/2000/svg">
<g clip-path="url(#clip0)">
<path fill-rule="evenodd" clip-rule="evenodd" d="M9.81828 1H6.18186L5.54552 1.85001L8.00003 4.87224L10.4546 1.85001L9.81828 1ZM5.09093 3.92776H3.8147e-06C0.700401 4.61426 1.50855 5.26037 2.36364 5.7222C2.70659 5.83308 3.00437 5.91002 3.36365 5.91112H4.72729L3.27274 7.70556L5.63637 8.83891L6.5455 5.43886L5.09093 3.92776ZM10.909 3.92776H16C15.2994 4.61334 14.4913 5.26113 13.6363 5.7222C13.2934 5.83308 12.9956 5.91002 12.6364 5.91112H11.2727L12.7272 7.70556L10.3636 8.83891L9.45451 5.43886L10.909 3.92776ZM9.909 13.0889L8.45446 5.53335C8.3924 5.74805 8.21528 5.89006 7.99997 5.91112C7.78554 5.88904 7.60705 5.74723 7.5454 5.53335L6.09087 13.0889L7.99997 14.6L9.909 13.0889Z" fill="#B3B4D0"/>
</g>
<defs>
<clipPath id="clip0">
<rect width="16" height="16" fill="white"/>
</clipPath>
</defs>
</svg>
