<svg xmlns="http://www.w3.org/2000/svg" viewBox="0 0 50.06 32.76"><polygon points="25.03 28.76 32.87 16.65 35.14 21.46 43.81 6.48 36.48 11.07 33.38 6.62 25.03 16.31 16.68 6.62 13.58 11.07 6.26 6.48 14.92 21.46 17.19 16.65 25.03 28.76" fill="#f57800"/><path d="M42.62,13.27l-5.57,3.49L35.13,14l-1.6-2.29-1.82,2.11L25,21.61l-6.71-7.78-1.82-2.12L14.87,14,13,16.76,7.38,13.27,0,8.62l4.38,7.57,8.66,15,2.08,3.59L16.85,31l.61-1.28,5.72,8.83L25,41.38l1.82-2.82,5.72-8.83L33.15,31l1.76,3.75L37,31.17l8.66-15L50,8.62ZM6.23,15.1l7.32,4.59,3.1-4.45L25,24.93l8.35-9.69,3.1,4.45,7.32-4.59-8.66,15-2.27-4.81L25,37.38,17.16,25.27l-2.27,4.81Z" transform="translate(0.03 -8.62)" fill="#411b02"/></svg>