<svg xmlns:xlink="http://www.w3.org/1999/xlink" xmlns="http://www.w3.org/2000/svg" viewBox="0 0 32 32"
    class="createSvgIcon__Svg-sc-1l8xi8d-0 loXvaP" width="32" height="32">
    <title>match-ward</title>
    <path
        d="M18.667 4l3.333 2.667-6 6-6-6 3.333-2.667h5.333zM10.667 19.333l2-6.667-3.666-3.333h-7.668c2.067 4.833 7.333 5.333 7.333 5.333l-4 0.667c1.688 3.721 6 4 6 4zM22.999 9.333l-3.666 3.333 2 6.667c0 0 4.312-0.279 6-4l-4-0.667c0 0 5.266-0.5 7.333-5.333h-7.668zM20.667 28l-3.333-14h-2.667l-3.333 14h9.333z"
        stroke="#BD9E59" fill="#BD9E59" stroke-width="0px"></path>
</svg>