<svg xmlns="http://www.w3.org/2000/svg" viewBox="0 0 50 50"><polygon points="11.2 29.2 7 25 25 7 34.22 16.22 37.72 12.72 25 0 0 25 7.7 32.7 11.2 29.2" fill="#efe5d1"/><polygon points="41.96 16.96 38.46 20.46 43 25 25 43 15.44 33.44 11.94 36.94 25 50 50 25 41.96 16.96" fill="#efe5d1"/><polygon points="20.23 20.16 25.25 25.18 31.22 19.22 25 13 13 25 14.2 26.2 20.23 20.16" fill="#efe5d1"/><polygon points="25.25 33.67 20.23 28.64 18.44 30.44 25 37 37 25 35.46 23.46 25.25 33.67" fill="#efe5d1"/></svg>