<svg id="Capa_1" data-name="Capa 1" xmlns="http://www.w3.org/2000/svg" viewBox="0 0 1833 348.03"><title>Logo_white</title><path d="M184.56,292.53c24.71,0,45.63,8.68,63,26s26.05,38.28,26.05,63V515.12c0,24.72-8.68,45.63-26.05,63s-38.28,26-63,26H140c-24.71,0-45.63-8.68-63-26s-26-38.28-26-63V381.56c0-24.71,8.68-45.63,26-63s38.29-26,63-26Zm22.26,89a22.33,22.33,0,0,0-22.26-22.26H140a22.33,22.33,0,0,0-22.26,22.26V515.12A22.32,22.32,0,0,0,140,537.38h44.52a22.32,22.32,0,0,0,22.26-22.26Z" transform="translate(-51 -292.53)" fill="#fff"/><path d="M421.89,310.08c23.32,0,43.07,8.19,59.45,24.58a81.43,81.43,0,0,1,22.27,39.28L442.9,394.11a21.07,21.07,0,0,0-21-21h-42a21.06,21.06,0,0,0-21,21v126a21.06,21.06,0,0,0,21,21h42a21.07,21.07,0,0,0,21-21l60.71,20.37a81.79,81.79,0,0,1-22.27,39.08C465,596,445.21,604.16,421.89,604.16h-42c-23.31,0-43.06-8.19-59.44-24.57s-24.58-36.13-24.58-59.45v-126c0-23.32,8.19-43.06,24.58-59.45s36.13-24.58,59.44-24.58Z" transform="translate(-51 -292.53)" fill="#fff"/><path d="M582.59,604.16h-63V310.08h63Zm84-115.53h-63l-21-63h84V310.08h63V604.16h-63Z" transform="translate(-51 -292.53)" fill="#fff"/><path d="M831.51,436.12v168h-63V310.08h126c23.32,0,43.07,8.19,59.45,24.58s24.58,36.13,24.58,59.45v21c0,23.32-8.2,43.06-24.58,59.45a80.43,80.43,0,0,1-26.89,18.27l51.47,111.33H909.23Zm0,0h63a21.07,21.07,0,0,0,21-21v-21a21.07,21.07,0,0,0-21-21h-63Z" transform="translate(-51 -292.53)" fill="#fff"/><path d="M1067.82,541.15h126v63H1004.8V310.08h189.06v63h-126Zm105-52.52h-84l-21-63h105Z" transform="translate(-51 -292.53)" fill="#fff"/><path d="M1284,373.1V604.16h-63V310.08H1410v63Zm105,115.53h-84l-21-63h105Z" transform="translate(-51 -292.53)" fill="#fff"/><path d="M1549.69,310.08c23.32,0,43.07,8.19,59.45,24.58s24.58,36.13,24.58,59.45v126c0,23.32-8.19,43.06-24.58,59.45s-36.13,24.57-59.45,24.57h-42c-23.31,0-43.06-8.19-59.44-24.57s-24.58-36.13-24.58-59.45v-126c0-23.32,8.19-43.06,24.58-59.45s36.13-24.58,59.44-24.58Zm21,84a21.07,21.07,0,0,0-21-21h-42a21.06,21.06,0,0,0-21,21v126a21.06,21.06,0,0,0,21,21h42a21.07,21.07,0,0,0,21-21Z" transform="translate(-51 -292.53)" fill="#fff"/><path d="M1802.75,448.34,1884,604.16h-73.46L1766,518.69l-52,102.6-48.9,11.28h0A351.08,351.08,0,0,1,1692,575.84l4-6.84-24.55,25.34Q1665,601,1658.91,608l-28.37,32.56,98.75-192.21-81.24-155.81h73.45L1766,378l44.52-85.47H1884Z" transform="translate(-51 -292.53)" fill="#fff"/></svg>