<svg xmlns="http://www.w3.org/2000/svg" viewBox="0 0 827.8 159.84"><path d="M699.85,136.84H646.1a20,20,0,0,1-20-20V20.12a20,20,0,0,1,20-20h53.75a20,20,0,0,1,20,20v96.72A20,20,0,0,1,699.85,136.84Zm-42.5-34.18c0,3.26,1.34,4.88,4,4.88H684.7c2.6,0,3.9-1.62,3.9-4.88V34.3c0-3.25-1.3-4.87-3.9-4.88H661.36q-4,0-4,4.88Z" transform="translate(0 0)" fill="#fff"/><path d="M192.3,107.42H140.73c-2.6,0-3.9-1.62-3.9-4.88V34.18c0-3.26,1.3-4.88,3.9-4.88H192.3A248.36,248.36,0,0,1,198.7,0H121.2q-15.63,0-15.62,19.53v97.66q0,19.53,15.62,19.53l77.56.24A248.46,248.46,0,0,1,192.3,107.42Z" transform="translate(0 0)" fill="#fff"/><polygon points="208.15 0 208.15 136.72 239.4 136.72 239.4 80.57 239.4 56.15 239.4 0 208.15 0" fill="#fff"/><polygon points="270.65 0 270.65 56.15 239.4 56.15 245.91 80.57 270.65 80.57 270.65 136.72 301.9 136.72 301.9 0 270.65 0" fill="#fff"/><path d="M387.75,80.57l21.78,56.15h-29.3L349,56.15h23.44c2.6,0,3.91-1.62,3.91-4.88V34.18c0-3.26-1.31-4.88-3.91-4.88H345.08V136.72H313.83V0h73.75a20,20,0,0,1,20,20V61q0,19.53-15.63,19.53Z" transform="translate(0 0)" fill="#fff"/><path d="M451.52,29.3V56.15h50.79V80.57H451.52v26.85H514v29.3H440.27a20,20,0,0,1-20-20V20a20,20,0,0,1,20-20H514l-7.81,29.3Z" transform="translate(0 0)" fill="#fff"/><path d="M556.1,29.3V56.15h50.78V80.57H556.1v56.15H524.85V20a20,20,0,0,1,20-20H618.6l-7.81,29.3Z" transform="translate(0 0)" fill="#fff"/><path d="M73.75,136.72H20a20,20,0,0,1-20-20V20A20,20,0,0,1,20,0H73.75a20,20,0,0,1,20,20v96.72A20,20,0,0,1,73.75,136.72Zm-42.5-34.18c0,3.26,1.33,4.88,4,4.88H58.59c2.61,0,3.91-1.62,3.91-4.88V34.18c0-3.26-1.3-4.88-3.91-4.88H35.25c-2.67,0-4,1.62-4,4.88Z" transform="translate(0 0)" fill="#fff"/><path d="M799.79,79.05,794.6,68.36,827.8,0H792.64l-33.2,68.36-33.2,68.36L715,159.84h0A254.15,254.15,0,0,1,777,99.3a254.11,254.11,0,0,0-35.28,44.23,95.15,95.15,0,0,1,19-5.41L777,104.59l10.15,20.88a20,20,0,0,0,18,11.25H827.8L802.21,84Z" transform="translate(0 0)" fill="#fff"/><path d="M726.24,0,755,59.2,772.58,23l-5.71-11.75A20,20,0,0,0,748.88,0Z" transform="translate(0 0)" fill="#fff"/></svg>