<svg xmlns:xlink="http://www.w3.org/1999/xlink" xmlns="http://www.w3.org/2000/svg" viewBox="0 0 48 48" class="createSvgIcon__Svg-sc-1l8xi8d-0 loXvaP" width="48"  height="48" ><title>rank-iron</title><path fill-rule="evenodd" clip-rule="evenodd" d="M15.781 32.7894C11.5828 26.3012 14.9659 20.2812 17.1525 18.2537C8.99457 16.2023 4.15232 10.2677 2.78077 7.3855C2.256 16.0204 8.36645 22.7908 11.4873 25.0967C10.1902 25.3352 9.16166 24.6395 8.68464 24.2022C8.82776 28.6867 13.4752 34.3797 15.781 36.6656V32.7894ZM31.3453 26.3788C31.3453 30.3145 28.1547 33.505 24.219 33.505C20.2833 33.505 17.0927 30.3145 17.0927 26.3788C17.0927 22.443 20.2833 19.2525 24.219 19.2525C28.1547 19.2525 31.3453 22.443 31.3453 26.3788ZM30.837 18.2538C33.0235 20.2813 36.4067 26.3012 32.2085 32.7894V36.6656C34.5143 34.3797 39.1617 28.6867 39.3048 24.2022C38.8278 24.6395 37.7992 25.3352 36.5022 25.0967C39.623 22.7909 45.7335 16.0205 45.2087 7.38553C43.8372 10.2678 38.9949 16.2023 30.837 18.2538Z" fill="#51484A" stroke="#817678" stroke-width="0px"></path></svg>