<svg xmlns:xlink="http://www.w3.org/1999/xlink" xmlns="http://www.w3.org/2000/svg" viewBox="0 0 48 48" class="createSvgIcon__Svg-sc-1l8xi8d-0 loXvaP" width="48"  height="48" ><title>rank-gold</title><path fill-rule="evenodd" clip-rule="evenodd" d="M3.00896 7.49243C3.89044 12.6228 12.36 17.7662 16.4845 19.6967C13.6596 23.0585 13.5464 30.1777 17.6992 33.4265C21.0215 36.0256 21.174 38.6529 20.9198 41.1672C18.8858 36.1951 15.91 34.4341 13.9984 33.4265C13.6875 34.839 14.2244 36.5247 14.6764 37.2403C10.1337 34.9351 6.42722 27.4374 6.42722 24.8101C7.38262 25.999 8.54581 26.1758 9.12044 26.2631C9.1575 26.2687 9.19211 26.274 9.22406 26.2791C9.22406 25.1208 9.02628 23.6235 6.25769 20.9397C3.21069 17.986 1.87884 12.0125 3.00896 7.49243ZM30.7511 25.9401C30.7511 29.6067 27.7788 32.579 24.1122 32.579C20.4456 32.579 17.4733 29.6067 17.4733 25.9401C17.4733 22.2735 20.4456 19.3012 24.1122 19.3012C27.7788 19.3012 30.7511 22.2735 30.7511 25.9401ZM31.4229 19.6967C35.5475 17.7663 44.017 12.6228 44.8985 7.49248C46.0286 12.0126 44.6968 17.986 41.6498 20.9398C38.8812 23.6236 38.6834 25.1209 38.6834 26.2791C38.7154 26.274 38.75 26.2687 38.787 26.2631C39.3617 26.1758 40.5249 25.9991 41.4803 24.8101C41.4803 27.4374 37.7738 34.9351 33.2311 37.2404C33.6831 36.5247 34.22 34.8391 33.9091 33.4266C31.9975 34.4342 29.0217 36.1951 26.9877 41.1672C26.7335 38.6529 26.886 36.0256 30.2082 33.4266C34.3611 30.1777 34.2479 23.0586 31.4229 19.6967Z" fill="#CD8837" stroke="#CD8837" stroke-width="0px"></path></svg>