<svg xmlns:xlink="http://www.w3.org/1999/xlink" xmlns="http://www.w3.org/2000/svg" viewBox="0 0 48 48" class="createSvgIcon__Svg-sc-1l8xi8d-0 loXvaP" width="48"  height="48" ><title>rank-grandmaster</title><circle cx="24.3362" cy="28.6984" r="5.9795" fill="#CD4545" stroke="#D94444" stroke-width="0px"></circle><path fill-rule="evenodd" clip-rule="evenodd" d="M17.9539 21.927C14.8343 18.6174 8.83253 10.4493 9.78261 4.25427C8.29404 7.04135 5.83924 12.6631 6.93203 16.8437C7.25602 18.0832 7.52122 18.9088 7.72498 19.5431C8.15659 20.8867 8.31249 21.372 8.16737 23.1147C6.69463 21.5153 3.74917 17.5088 3.74917 14.2783C2.43476 16.9546 0.803604 24.3974 4.79427 32.7587C8.76904 33.408 17.4122 36.4928 20.1866 43.6379L22.0394 38.032C20.0283 37.4144 15.8254 35.0201 15.1033 30.3833C14.3812 25.7466 16.7028 22.8138 17.9539 21.927ZM30.1503 21.927C33.27 18.6174 39.2717 10.4493 38.3216 4.25427C39.8102 7.04135 42.265 12.6631 41.1722 16.8437C40.8482 18.0832 40.583 18.9088 40.3793 19.5431C39.9477 20.8867 39.7918 21.372 39.9369 23.1147C41.4096 21.5153 44.3551 17.5088 44.3551 14.2783C45.6695 16.9546 47.3006 24.3974 43.31 32.7587C39.3352 33.408 30.6921 36.4928 27.9176 43.6379L26.0648 38.032C28.076 37.4144 32.2788 35.0201 33.0009 30.3833C33.723 25.7466 31.4014 22.8138 30.1503 21.927Z" fill="#756572" stroke="#D94444" stroke-width="0px"></path><path fill-rule="evenodd" clip-rule="evenodd" d="M17.9539 21.927C14.8343 18.6174 8.83253 10.4493 9.78261 4.25427C8.29404 7.04135 5.83924 12.6631 6.93203 16.8437C7.25602 18.0832 7.52122 18.9088 7.72498 19.5431C8.15659 20.8867 8.31249 21.372 8.16737 23.1147C6.69463 21.5153 3.74917 17.5088 3.74917 14.2783C2.43476 16.9546 0.803604 24.3974 4.79427 32.7587C8.76904 33.408 17.4122 36.4928 20.1866 43.6379L22.0394 38.032C20.0283 37.4144 15.8254 35.0201 15.1033 30.3833C14.3812 25.7466 16.7028 22.8138 17.9539 21.927ZM30.1503 21.927C33.27 18.6174 39.2717 10.4493 38.3216 4.25427C39.8102 7.04135 42.265 12.6631 41.1722 16.8437C40.8482 18.0832 40.583 18.9088 40.3793 19.5431C39.9477 20.8867 39.7918 21.372 39.9369 23.1147C41.4096 21.5153 44.3551 17.5088 44.3551 14.2783C45.6695 16.9546 47.3006 24.3974 43.31 32.7587C39.3352 33.408 30.6921 36.4928 27.9176 43.6379L26.0648 38.032C28.076 37.4144 32.2788 35.0201 33.0009 30.3833C33.723 25.7466 31.4014 22.8138 30.1503 21.927Z" fill="#756572" stroke="#D94444" stroke-width="0px"></path></svg>