<svg xmlns:xlink="http://www.w3.org/1999/xlink" xmlns="http://www.w3.org/2000/svg" viewBox="0 0 48 48" class="createSvgIcon__Svg-sc-1l8xi8d-0 loXvaP" width="48"  height="48" ><title>rank-master</title><circle cx="24.0205" cy="28.7449" r="5.9795" fill="#9E4AE0" stroke="#9D48E0" stroke-width="0px"></circle><path fill-rule="evenodd" clip-rule="evenodd" d="M18.1372 21.9675C15.0865 18.731 9.21744 10.7434 10.1465 4.6853C8.69084 7.41079 6.29029 12.9083 7.35893 16.9965C7.67576 18.2086 7.93511 19.016 8.13436 19.6362C8.55643 20.9502 8.70889 21.4248 8.56697 23.1289C7.12678 21.5649 4.24641 17.6469 4.24641 14.4878C2.96105 17.1049 1.36594 24.3833 5.26841 32.5598C9.15534 33.1948 17.6075 36.2114 20.3206 43.1986L22.1325 37.7166C20.1657 37.1127 16.0558 34.7712 15.3496 30.237C14.6435 25.7027 16.9138 22.8347 18.1372 21.9675ZM29.9375 21.9675C32.9882 18.731 38.8573 10.7434 37.9282 4.6853C39.3839 7.41079 41.7844 12.9083 40.7158 16.9965C40.3989 18.2086 40.1396 19.0159 39.9403 19.6362C39.5183 20.9502 39.3658 21.4248 39.5077 23.1289C40.9479 21.5649 43.8283 17.6469 43.8283 14.4878C45.1137 17.1049 46.7088 24.3833 42.8063 32.5598C38.9194 33.1948 30.4672 36.2114 27.7541 43.1986L25.9423 37.7166C27.909 37.1127 32.0189 34.7712 32.7251 30.237C33.4312 25.7027 31.1609 22.8347 29.9375 21.9675Z" fill="#A4584E" stroke="#9D48E0" stroke-width="0px"></path></svg>